/* XPM */
static char *c4c594b7f5b44684be8f4d3147905f10JTKmVIHg1biRCsvT[] = {
/* columns rows colors chars-per-pixel */
"64 64 256 2 ",
"   c black",
".  c blue",
"X  c green",
"o  c red",
"O  c cyan",
"+  c yellow",
"@  c magenta",
"#  c white",
"$  c #7B7B7B",
"%  c #7B7B7B",
"&  c #7B7B7B",
"*  c #7B7B7B",
"=  c #7B7B7B",
"-  c #7B7B7B",
";  c #7B7B7B",
":  c #7B7B7B",
">  c #7B7B7B",
",  c #7B7B7B",
"<  c #7B7B7B",
"1  c #7B7B7B",
"2  c #7B7B7B",
"3  c #7B7B7B",
"4  c #7B7B7B",
"5  c #7B7B7B",
"6  c #7B7B7B",
"7  c #7B7B7B",
"8  c #7B7B7B",
"9  c #7B7B7B",
"0  c #7B7B7B",
"q  c #7B7B7B",
"w  c #7B7B7B",
"e  c #7B7B7B",
"r  c #7B7B7B",
"t  c #7B7B7B",
"y  c #7B7B7B",
"u  c #7B7B7B",
"i  c #7B7B7B",
"p  c #7B7B7B",
"a  c #7B7B7B",
"s  c #7B7B7B",
"d  c #7B7B7B",
"f  c #7B7B7B",
"g  c #7B7B7B",
"h  c #7B7B7B",
"j  c #7B7B7B",
"k  c #7B7B7B",
"l  c #7B7B7B",
"z  c #7B7B7B",
"x  c #7B7B7B",
"c  c #7B7B7B",
"v  c #7B7B7B",
"b  c #7B7B7B",
"n  c #7B7B7B",
"m  c #7B7B7B",
"M  c #7B7B7B",
"N  c #7B7B7B",
"B  c #7B7B7B",
"V  c #7B7B7B",
"C  c #7B7B7B",
"Z  c #7B7B7B",
"A  c #7B7B7B",
"S  c #7B7B7B",
"D  c #7B7B7B",
"F  c #7B7B7B",
"G  c #7B7B7B",
"H  c #7B7B7B",
"J  c #7B7B7B",
"K  c #7B7B7B",
"L  c #7B7B7B",
"P  c #7B7B7B",
"I  c #7B7B7B",
"U  c #7B7B7B",
"Y  c #7B7B7B",
"T  c #7B7B7B",
"R  c #7B7B7B",
"E  c #7B7B7B",
"W  c #7B7B7B",
"Q  c #7B7B7B",
"!  c #7B7B7B",
"~  c #7B7B7B",
"^  c #7B7B7B",
"/  c #7B7B7B",
"(  c #7B7B7B",
")  c #7B7B7B",
"_  c #7B7B7B",
"`  c #7B7B7B",
"'  c #7B7B7B",
"]  c #7B7B7B",
"[  c #7B7B7B",
"{  c #7B7B7B",
"}  c #7B7B7B",
"|  c #7B7B7B",
" . c #7B7B7B",
".. c #7B7B7B",
"X. c #7B7B7B",
"o. c #7B7B7B",
"O. c #7B7B7B",
"+. c #7B7B7B",
"@. c #7B7B7B",
"#. c #7B7B7B",
"$. c #7B7B7B",
"%. c #7B7B7B",
"&. c #7B7B7B",
"*. c #7B7B7B",
"=. c #7B7B7B",
"-. c #7B7B7B",
";. c #7B7B7B",
":. c #7B7B7B",
">. c #7B7B7B",
",. c #7B7B7B",
"<. c #7B7B7B",
"1. c #7B7B7B",
"2. c #7B7B7B",
"3. c #7B7B7B",
"4. c #7B7B7B",
"5. c #7B7B7B",
"6. c #7B7B7B",
"7. c #7B7B7B",
"8. c #7B7B7B",
"9. c #7B7B7B",
"0. c #7B7B7B",
"q. c #7B7B7B",
"w. c #7B7B7B",
"e. c #7B7B7B",
"r. c #7B7B7B",
"t. c #7B7B7B",
"y. c #7B7B7B",
"u. c #7B7B7B",
"i. c #7B7B7B",
"p. c #7B7B7B",
"a. c #7B7B7B",
"s. c #7B7B7B",
"d. c #7B7B7B",
"f. c #7B7B7B",
"g. c #7B7B7B",
"h. c #7B7B7B",
"j. c #7B7B7B",
"k. c #7B7B7B",
"l. c #7B7B7B",
"z. c #7B7B7B",
"x. c #7B7B7B",
"c. c #7B7B7B",
"v. c #7B7B7B",
"b. c #7B7B7B",
"n. c #7B7B7B",
"m. c #7B7B7B",
"M. c #7B7B7B",
"N. c #7B7B7B",
"B. c #7B7B7B",
"V. c #7B7B7B",
"C. c #7B7B7B",
"Z. c #7B7B7B",
"A. c #7B7B7B",
"S. c #7B7B7B",
"D. c #7B7B7B",
"F. c #7B7B7B",
"G. c #7B7B7B",
"H. c #7B7B7B",
"J. c #7B7B7B",
"K. c #7B7B7B",
"L. c #7B7B7B",
"P. c #7B7B7B",
"I. c #7B7B7B",
"U. c #7B7B7B",
"Y. c #7B7B7B",
"T. c #7B7B7B",
"R. c #7B7B7B",
"E. c #7B7B7B",
"W. c #7B7B7B",
"Q. c #7B7B7B",
"!. c #7B7B7B",
"~. c #7B7B7B",
"^. c #7B7B7B",
"/. c #7B7B7B",
"(. c #7B7B7B",
"). c #7B7B7B",
"_. c #7B7B7B",
"`. c #7B7B7B",
"'. c #7B7B7B",
"]. c #7B7B7B",
"[. c #7B7B7B",
"{. c #7B7B7B",
"}. c #7B7B7B",
"|. c #7B7B7B",
" X c #7B7B7B",
".X c #7B7B7B",
"XX c #7B7B7B",
"oX c #7B7B7B",
"OX c #7B7B7B",
"+X c #7B7B7B",
"@X c #7B7B7B",
"#X c #7B7B7B",
"$X c #7B7B7B",
"%X c #7B7B7B",
"&X c #7B7B7B",
"*X c #7B7B7B",
"=X c #7B7B7B",
"-X c #7B7B7B",
";X c #7B7B7B",
":X c #7B7B7B",
">X c #7B7B7B",
",X c #7B7B7B",
"<X c #7B7B7B",
"1X c #7B7B7B",
"2X c #7B7B7B",
"3X c #7B7B7B",
"4X c #7B7B7B",
"5X c #7B7B7B",
"6X c #7B7B7B",
"7X c #7B7B7B",
"8X c #7B7B7B",
"9X c #7B7B7B",
"0X c #7B7B7B",
"qX c #7B7B7B",
"wX c #7B7B7B",
"eX c #7B7B7B",
"rX c #7B7B7B",
"tX c #7B7B7B",
"yX c #7B7B7B",
"uX c #7B7B7B",
"iX c #7B7B7B",
"pX c #7B7B7B",
"aX c #7B7B7B",
"sX c #7B7B7B",
"dX c #7B7B7B",
"fX c #7B7B7B",
"gX c #7B7B7B",
"hX c #181818",
"jX c #5A4129",
"kX c #394129",
"lX c #4A3920",
"zX c #4A3118",
"xX c #6A6A6A",
"cX c #5A5A5A",
"vX c #6A4120",
"bX c #838383",
"nX c #5A4120",
"mX c gray45",
"MX c #103108",
"NX c #081000",
"BX c #101010",
"VX c gray16",
"CX c #312910",
"ZX c #414141",
"AX c #102008",
"SX c #184110",
"DX c #202020",
"FX c #313131",
"GX c #413118",
"HX c gray32",
"JX c #392910",
"KX c #393939",
"LX c gray29",
"PX c #292008",
"IX c #523918",
"UX c #626262",
/* pixels */
"CXCXCXCXPXAXhXhXPXhXDXAXhXDXhXhXAXAXCXPXCXCXPXGXlXlXlXlXlXDXhXhXhXhXhXhXhXhXhXhXhXhXhXhXhXhXhXhXhXhXKXKXKXKXKXKXKXKXGXDXGXPXAXAX",
"AXCXGXCXAXPXAXPXPXhXPXPXhXhXAXAXCXCXPXPXGXCXCXPXGXlXlXFXDXhXhXDXDXDXDXDXDXDXDXDXDXDXDXDXDXDXDXDXhXhXFXKXKXKXKXZXKXKXFXCXDXCXCXCX",
"CXCXGXGXCXAXCXAXAXCXPXPXPXPXGXMXCXPXPXCXCXCXGXGXlXlXFXDXhXhXDXFXlXlXlXnXnXvXvXvXvXnXnXnXlXlXMXCXDXhXDXFXKXKXKXKXZXKXFXFXCXGXGXCX",
"FXFXFXCXCXCXCXCXCXCXPXPXGXPXGXMXCXCXCXCXGXGXGXlXlXnXDXhXhXDXFXlXGXlXGXlXnXnXnXnXlXlXlXlXlXGXMXGXCXDXhXDXFXKXZXZXKXKXKXKXFXlXFXFX",
"FXFXKXCXFXFXFXFXnXCXCXGXGXGXCXCXCXCXCXGXGXlXlXlXnXDXhXhXDXGXlXGXMXGXCXlXnXnXKXnXnXlXGXlXlXlXGXGXFXKXDXhXDXFXZXZXZXZXKXKXKXlXKXlX",
"KXKXZXCXKXKXnXKXFXFXCXFXGXGXCXCXCXCXCXGXlXnXnXnXDXhXhXDXlXGXlXGXCXlXlXlXnXKXZXKXFXCXlXlXGXlXMXFXKXFXKXDXhXDXFXZXZXZXZXZXZXHXZXKX",
"ZXZXZXZXKXZXZXlXFXFXlXFXGXlXGXPXCXCXGXGXlXnXnXDXhXhXDXnXGXMXGXlXlXlXlXlXGXKXZXZXKXFXlXlXlXGXlXlXGXKXKXKXDXhXDXFXZXZXZXZXZXcXZXZX",
"cXHXcXZXZXHXHXZXZXGXFXGXGXFXFXCXCXGXGXlXnXnXDXhXhXDXnXGXGXCXGXGXlXGXFXlXnXKXKXKXFXGXCXGXlXMXKXlXGXGXFXFXZXDXhXDXFXZXZXcXZXcXcXcX",
"cXcXcXcXcXHXHXZXZXZXFXKXCXKXFXDXCXGXlXlXnXDXhXhXDXnXCXCXFXGXGXlXnXGXGXlXlXKXlXlXKXKXGXKXKXlXGXKXGXGXFXFXKXZXDXhXDXFXHXcXcXUXcXcX",
"cXcXcXcXcXcXcXHXHXZXZXZXKXKXKXFXDXlXnXnXDXhXhXDXnXCXCXCXGXlXlXlXnXnXnXlXFXFXKXKXlXGXKXlXGXGXlXGXGXGXFXKXFXKXZXDXhXDXFXcXcXcXUXUX",
"cXUXUXxXUXUXcXUXHXHXZXZXZXKXFXFXlXlXlXDXhXhXDXlXCXCXFXlXlXlXnXnXnXnXZXnXnXKXFXnXlXlXnXlXKXGXlXlXGXKXKXFXFXFXKXKXDXhXDXFXUXUXcXcX",
"UXxXxXxXUXxXUXUXcXHXHXHXZXKXKXKXKXGXDXhXhXDXGXCXGXPXlXlXGXlXnXKXKXnXKXZXKXZXZXKXKXKXnXKXnXnXlXKXKXKXKXKXFXDXFXKXKXDXhXDXDXcXcXUX",
"xXxXxXxXxXxXxXxXUXUXcXHXZXKXKXKXGXDXhXhXDXFXCXGXGXlXnXGXGXGXKXGXKXKXnXZXKXZXHXZXKXKXZXKXnXKXKXKXKXKXZXKXKXDXFXFXKXKXDXhXDXDXcXUX",
"xXxXxX$ xXxXxXxXUXUXcXcXcXKXKXKXDXhXhXDXFXCXGXGXlXlXCXCXGXFXGXKXZXKXKXZXZXZXHXZXHXZXZXZXKXZXKXKXKXKXZXKXKXFXDXFXFXFXKXDXhXDXDXcX",
"HX$ $ $ $ $ xXxXxXUXUXcXcXcXnXDXhXhXDXDXDXCXGXlXGXlXCXGXlXFXFXKXZXZXKXZXZXHXcXcXcXHXZXZXZXZXZXZXKXKXKXKXKXFXFXFXPXFXFXKXDXhXDXDX",
"DXHXUXxX$ $ $ $ xXUXUXcXcXHXDXDXhXDXDXDXDXDXFXlXlXKXlXlXKXlXKXKXZXKXKXZXZXHXcXcXcXHXHXZXZXZXZXZXZXKXKXKXKXFXDXPXFXDXFXFXDXDXhXDX",
"hXhXhXhXhXhXhXhXhXhXhXhXhXhXhXhXhXDXDXDXDXFXFXCXlXlXKXFXlXlXKXZXZXKXKXZXHXHXcXcXcXcXHXHXHXHXZXZXZXKXKXKXFXDXDXDXFXFXFXDXDXDXDXhX",
"DXDXDXDXDXDXDXDXDXDXDXDXDXDXDXDXhXDXFXDXFXFXPXCXGXGXlXlXlXlXFXZXKXZXZXZXHXHXcXcXcXcXHXcXHXZXZXZXZXZXKXDXFXFXFXDXDXDXDXhXDXhXhXDX",
"KXZXcXcXxXxXxXxXUXcXcXHXKXKXKXPXDXhXDXFXDXFXCXFXGXGXFXlXlXKXFXZXZXKXZXZXZXHXcXcXcXcXcXHXHXZXZXZXKXKXFXFXFXCXDXDXDXDXhXhXhXhXDXFX",
"GXZXKXZXHXHXcXHXZXZXZXKXZXKXKXKXPXDXhXDXFXDXCXCXGXGXlXlXFXKXFXKXZXZXZXZXZXZXHXHXcXcXHXHXZXZXZXKXKXFXKXFXFXCXCXDXFXhXDXhXhXDXFXFX",
"FXZXKXZXHXHXcXHXHXZXZXZXZXKXKXKXKXDXPXhXDXFXCXCXCXGXGXlXGXFXKXKXFXZXZXZXZXHXHXHXHXHXHXZXZXHXKXKXFXZXFXDXFXCXFXFXDXDXhXhXDXFXFXFX",
"KXKXZXHXHXcXcXcXHXHXZXZXZXZXKXFXKXKXPXDXhXDXFXCXCXPXGXlXGXGXKXZXKXKXZXZXZXZXHXHXZXZXZXZXZXZXKXKXFXFXFXCXCXCXCXDXDXhXhXDXFXFXFXFX",
"FXKXKXZXHXcXUXcXcXHXZXZXZXKXlXFXFXKXKXPXDXhXDXFXPXPXAXGXlXGXGXKXKXZXKXKXZXZXZXZXZXZXZXZXZXKXKXFXCXAXFXCXAXDXDXhXhXhXDXFXFXFXDXFX",
"KXZXZXZXZXcXcXcXcXHXZXZXZXKXSXlXnXlXGXlXPXDXhXDXCXPXPXCXlXGXCXFXlXFXKXKXZXKXKXKXKXZXKXKXKXKXFXFXCXAXCXCXDXPXPXNXhXDXFXDXFXFXFXFX",
"KXZXZXZXZXHXcXHXHXHXHXKXkXSXlXlXnXnXGXGXlXDXDXhXDXCXPXPXCXGXCXFXFXGXKXKXKXKXKXKXFXZXKXFXFXKXDXCXAXAXPXPXPXPXPXhXDXDXDXDXFXFXFXFX",
"KXZXKXZXZXHXHXHXZXZXHXkXKXSXlXlXlXlXnXlXGXlXDXDXhXDXCXPXPXCXCXCXFXFXFXKXKXKXFXKXKXFXFXCXFXFXFXAXAXAXAXPXPXPXhXDXDXDXDXDXFXDXFXFX",
"FXKXZXZXZXZXZXkXkXZXkXKXKXKXFXlXFXlXlXnXnXCXCXDXDXhXDXCXPXPXCXPXCXCXFXFXFXKXGXKXDXDXCXCXDXDXCXCXAXAXPXDXhXhXDXFXDXDXDXDXDXDXFXFX",
"FXKXKXKXKXKXkXZXZXKXKXKXKXKXFXlXlXGXCXGXlXGXCXCXDXDXhXDXCXPXPXPXPXCXCXGXFXFXGXCXAXCXCXDXAXCXDXAXPXPXPXNXhXDXFXDXDXDXDXDXDXFXFXFX",
"FXFXKXKXKXKXZXZXKXKXKXKXKXFXKXlXGXCXAXPXGXGXGXCXDXDXDXhXDXCXAXPXPXPXCXCXCXCXGXGXGXCXDXPXCXDXCXAXPXAXNXhXDXFXDXDXDXDXDXDXDXDXFXFX",
"FXFXKXFXKXKXKXKXKXKXKXKXKXKXMXlXGXAXCXCXCXGXGXCXCXDXDXDXhXDXCXAXAXPXAXAXPXCXCXCXPXCXPXPXCXPXCXAXPXNXhXDXFXDXDXDXDXDXDXDXDXFXDXDX",
"FXFXKXKXKXKXKXKXFXKXKXKXKXFXlXGXGXGXGXCXAXGXGXPXCXCXDXDXDXhXDXCXPXPXPXPXPXCXPXPXPXPXPXPXPXPXPXPXNXhXDXFXDXDXDXAXAXDXDXDXDXDXDXDX",
"FXFXKXKXKXKXKXKXGXDXKXGXFXlXlXGXGXAXGXAXCXCXPXCXPXCXCXDXDXDXhXDXCXAXCXCXCXCXCXCXCXGXGXCXCXCXAXNXhXDXFXDXDXDXDXAXhXAXDXDXDXDXFXDX",
"DXFXFXKXKXFXFXFXFXKXKXMXMXlXGXGXGXGXGXAXAXCXCXCXPXCXPXPXDXDXDXhXhXhXhXhXhXhXhXhXhXhXhXhXhXhXhXhXhXFXDXDXDXAXAXAXhXAXhXDXDXDXDXFX",
"DXFXFXKXFXDXFXDXCXGXDXGXlXlXGXCXAXPXAXCXCXCXPXCXCXPXCXCXDXhXhXDXDXPXPXPXCXCXCXGXGXGXCXCXPXDXPXDXhXDXPXDXPXAXhXDXAXAXhXDXDXDXDXDX",
"DXAXAXFXFXDXGXFXFXGXFXPXKXMXGXCXPXCXGXPXCXCXCXCXCXCXCXDXhXhXDXFXFXPXPXPXPXPXPXPXPXPXPXPXPXPXPXPXDXhXDXPXPXPXAXAXhXhXAXAXDXDXDXDX",
"DXAXAXFXDXDXGXPXPXGXKXGXGXGXCXPXCXCXGXGXCXCXPXCXCXDXDXhXhXDXFXCXPXPXPXPXPXPXPXCXPXCXCXPXPXPXPXPXCXDXhXDXPXCXPXAXhXhXhXAXhXDXDXDX",
"DXDXFXFXCXCXCXGXGXGXGXCXMXAXCXPXPXAXCXGXCXCXPXCXCXDXhXhXDXFXCXCXCXPXCXPXPXPXPXCXCXCXCXPXCXCXCXCXPXGXDXhXDXPXCXPXAXhXhXAXhXDXDXDX",
"CXDXFXFXFXFXFXKXGXFXGXCXCXCXPXDXPXFXCXFXKXFXDXDXDXhXhXDXFXCXCXGXGXGXGXGXPXCXCXCXPXPXCXPXCXCXCXCXCXPXGXDXhXDXPXCXAXAXAXPXAXDXDXDX",
"CXGXFXFXGXGXGXGXGXGXAXCXAXCXAXPXDXFXKXKXKXFXDXDXBXhXDXFXlXlXlXlXGXGXCXCXGXCXCXCXCXGXGXGXCXGXCXCXCXCXCXlXDXhXDXPXCXPXPXPXPXPXPXCX",
"CXCXGXGXCXCXGXGXPXAXAXCXAXPXCXCXDXKXZXKXKXFXFXBXhXDXZXnXnXnXlXlXlXGXGXCXGXGXCXCXCXlXlXFXFXlXlXMXMXCXPXCXnXDXhXDXPXCXPXPXPXPXPXPX",
"CXCXAXPXPXAXPXCXDXPXCXAXAXPXPXCXFXZXZXZXKXFXhXhXDXHXnXnXnXnXnXlXlXlXlXlXnXlXlXlXnXKXFXFXKXKXKXKXKXMXCXCXCXnXDXhXDXPXCXPXPXDXPXPX",
"CXCXAXAXPXPXPXCXPXPXCXAXPXAXCXCXKXKXZXKXFXBXhXDXHXnXvXnXZXnXZXnXnXnXZXnXZXZXZXKXKXFXFXKXKXKXKXKXFXFXMXCXGXGXlXDXhXDXPXCXPXPXPXPX",
"CXDXAXAXAXPXCXCXPXPXPXAXPXCXCXFXKXKXKXFXBXhXDXZXKXnXnXZXHXHXZXZXZXZXnXjXZXKXKXKXKXZXZXKXKXKXKXKXFXFXFXDXlXGXGXlXDXhXDXPXCXDXPXCX",
"CXAXPXAXAXPXCXCXCXCXAXAXCXCXFXFXKXKXFXhXhXDXZXKXKXZXZXZXHXHXHXHXZXZXZXZXKXKXKXZXZXZXZXZXKXZXKXKXFXDXDXDXKXKXlXGXCXDXhXDXPXCXDXCX",
"PXAXPXAXPXPXPXCXAXAXCXCXCXCXFXKXFXDXhXhXDXZXKXKXZXZXZXHXHXcXcXcXHXHXZXZXZXZXZXZXZXZXZXZXKXKXKXFXFXFXDXDXFXFXKXFXFXDXDXhXDXPXCXDX",
"PXAXPXAXAXAXDXDXDXDXPXAXAXDXFXFXDXhXhXDXKXKXKXKXZXZXHXHXHXcXcXcXcXcXcXcXHXHXcXcXcXcXHXZXZXZXZXKXFXFXFXDXDXFXFXKXKXFXDXDXhXDXPXCX",
"DXPXPXPXPXPXPXPXPXPXPXPXPXDXDXPXhXhXDXKXKXKXKXKXKXZXHXHXcXcXcXcXcXcXcXcXcXcXcXcXcXcXcXcXZXKXZXKXKXKXFXFXDXFXFXFXDXDXDXDXDXhXDXPX",
"CXCXCXCXCXCXCXCXCXCXCXCXCXCXPXPXhXDXFXKXKXKXKXKXZXZXHXHXcXcXcXcXUXUXUXcXcXUXcXcXUXcXHXcXHXZXZXZXKXKXKXFXFXDXDXDXDXDXDXDXDXDXhXDX",
"hXhXhXhXhXhXhXhXhXhXhXhXhXhXhXhXhXDXFXKXKXKXKXKXKXZXZXHXcXUXUXcXUXUXUXUXUXxXxXUXxXUXUXcXcXHXZXZXZXHXKXKXFXFXDXDXDXFXFXFXDXhXhXhX",
"FXPXPXPXPXPXPXPXPXPXPXPXPXPXPXPXhXDXDXFXKXKXKXKXKXZXZXHXcXUXcXUXUXxXxXxXxX$ xXxXxXxXxXxXcXcXZXHXZXZXZXKXKXKXKXKXFXFXFXDXDXDXhXKX",
"FXFXPXDXPXPXPXPXPXPXPXPXPXPXPXPXFXhXDXDXFXFXFXKXKXZXZXZXHXcXcXUXUXxXxXxXxX$ $ bXxXxXxXxXxXcXZXHXHXZXKXZXKXKXKXKXFXFXFXDXDXhXKXFX",
"DXDXDXPXPXPXPXPXPXDXPXPXPXDXDXDXDXFXhXDXDXFXFXKXKXZXZXHXHXcXUXUXxXxXxXxXxXxXxX$ $ $ xXxXxXcXUXHXcXHXZXKXKXKXKXKXFXDXDXDXhXKXFXDX",
"DXDXDXDXPXPXPXPXPXDXPXDXDXDXDXKXKXZXFXhXDXDXFXKXKXZXZXZXHXcXcXUXxXxXxXxXxXxX$ $ $ xXxXxXxXxXcXcXHXHXZXKXKXKXKXFXDXFXDXhXKXFXDXDX",
"FXDXDXPXDXDXPXPXPXDXDXDXDXDXFXFXKXKXZXFXhXDXDXFXKXKXZXZXZXHXcXUXUXxXxXxX$ xX$ $ $ xXxXxXxXxXUXcXHXHXHXZXKXKXFXDXFXDXhXKXFXDXDXDX",
"FXDXDXPXPXPXPXPXDXDXDXDXDXDXDXFXKXKXFXZXFXhXDXDXFXKXKXZXZXZXHXcXcXUXxXxXxXxXxX$ xXxXxXxXUXUXUXcXHXZXZXKXKXFXDXFXDXhXKXFXDXFXFXDX",
"FXDXPXDXPXPXPXPXDXDXDXDXDXDXDXKXFXKXKXKXcXFXhXDXDXFXKXKXZXZXZXHXcXcXcXUXxXUXxXxXxXUXUXUXUXUXcXHXHXZXKXKXFXDXFXDXhXKXFXFXFXDXFXDX",
"AXDXDXPXPXPXPXDXDXDXDXDXDXDXDXKXFXKXKXKXKXcXFXhXDXDXFXKXKXZXZXZXHXcXHXcXcXcXcXUXUXUXUXcXcXcXHXHXZXKXKXFXDXKXDXhXKXFXDXDXDXDXDXFX",
"DXDXPXPXDXPXPXDXDXDXDXDXFXDXFXDXKXFXFXKXKXZXcXFXhXDXDXFXKXZXZXHXHXHXZXHXHXHXcXcXcXcXcXcXHXHXHXZXKXKXFXDXKXDXhXKXFXFXDXFXFXFXFXDX",
"DXPXPXCXDXPXPXPXPXDXDXDXDXDXDXDXFXFXFXKXKXKXZXcXFXhXDXDXFXZXZXZXZXvXZXZXZXvXZXZXHXcXZXHXHXZXZXZXnXnXDXKXDXhXKXFXFXDXFXFXFXDXDXDX",
"DXPXCXPXPXDXAXPXPXhXDXDXDXDXDXDXFXFXFXKXKXKXKXZXHXFXhXDXlXZXnXvXvXvXvXvXvXvXvXZXZXZXHXZXHXZXnXnXnXnXKXDXhXKXFXDXFXDXDXDXDXDXDXPX",
"PXPXDXPXPXPXAXPXAXhXhXDXhXDXDXDXDXFXFXDXFXKXKXKXZXZXFXhXDXlXnXnXnXnXnXnXnXnXnXvXnXnXZXZXZXnXnXnXnXKXDXhXKXFXFXFXDXDXDXDXDXDXDXDX",
"PXCXPXAXAXAXPXAXhXDXhXhXhXPXDXDXDXFXDXFXDXFXKXFXKXFXnXlXhXDXlXnXnXnXnXnXnXnXlXnXnXnXZXZXZXlXlXlXKXDXhXKXFXKXKXFXFXDXDXFXDXDXPXPX",
"PXCXCXPXAXAXAXhXPXBXBXBXhXhXPXPXDXDXDXDXDXDXFXDXGXGXlXnXlXhXDXGXnXnXnXnXnXnXZXlXlXlXnXKXKXlXlXKXDXhXKXFXKXKXKXKXFXDXDXPXPXPXPXPX",
"AXAXPXPXPXAXhXhXPXBXBXBXBXhXDXDXPXPXDXPXPXPXPXDXGXlXlXlXnXDXhXDXGXnXnXnXnXnXlXlXlXlXnXnXKXKXKXDXhXKXKXKXKXKXKXKXKXGXDXGXPXPXCXCX"
};
